<?xml version="1.0" standalone="no"?>
<!DOCTYPE svg PUBLIC "-//W3C//DTD SVG 20010904//EN"
 "http://www.w3.org/TR/2001/REC-SVG-20010904/DTD/svg10.dtd">
<svg version="1.0" xmlns="http://www.w3.org/2000/svg"
 width="32.000000pt" height="26.000000pt" viewBox="0 0 32.000000 26.000000"
 preserveAspectRatio="xMidYMid meet">
<metadata>
Created by potrace 1.15, written by Peter Selinger 2001-2017
</metadata>
<g transform="translate(0.000000,26.000000) scale(0.100000,-0.100000)"
fill="#000000" stroke="none">
<path d="M41 234 c-24 -31 -25 -34 -10 -85 10 -33 9 -42 -11 -75 l-22 -38 22
-18 c30 -25 34 -23 69 21 64 80 81 176 39 205 -33 23 -64 19 -87 -10z"/>
<path d="M210 240 c-23 -23 -25 -49 -8 -96 10 -27 8 -36 -12 -68 -21 -35 -22
-38 -5 -56 25 -28 39 -25 69 15 37 49 66 114 66 153 0 39 -30 72 -65 72 -14 0
-34 -9 -45 -20z"/>
</g>
</svg>
